<svg width="156" height="156" viewBox="0 0 156 156" fill="none" xmlns="http://www.w3.org/2000/svg">
<rect x="17.5" y="17.5" width="121" height="121" rx="17.5" stroke="black" stroke-width="15"/>
<path d="M63.24 114.82C59.6667 114.82 56.4933 114.127 53.72 112.74C50.9467 111.407 48.7867 109.567 47.24 107.22C45.6933 104.873 44.92 102.18 44.92 99.14V92.5C44.92 90.3667 44.68 88.7133 44.2 87.54C43.72 86.3667 42.9733 85.54 41.96 85.06C41 84.58 39.6933 84.34 38.04 84.34V74.02C39.6933 74.0733 41 73.86 41.96 73.38C42.9733 72.9 43.72 72.0733 44.2 70.9C44.68 69.6733 44.92 67.9667 44.92 65.78V59.14C44.92 56.1533 45.6933 53.4867 47.24 51.14C48.7867 48.74 50.9467 46.9 53.72 45.62C56.4933 44.2867 59.6667 43.62 63.24 43.62H67V55.3C63.96 55.1933 61.6933 55.6733 60.2 56.74C58.76 57.7533 58.04 59.4067 58.04 61.7V66.02C58.04 69.5933 56.8933 72.58 54.6 74.98C52.36 77.3267 49.48 78.6067 45.96 78.82V79.46C49.5333 79.6733 52.44 80.98 54.68 83.38C56.92 85.7267 58.04 88.6867 58.04 92.26V96.66C58.04 99.06 58.76 100.82 60.2 101.94C61.6933 103.06 63.96 103.567 67 103.46V114.82H63.24ZM89.195 114.82V103.46C92.1817 103.567 94.395 103.06 95.835 101.94C97.3283 100.82 98.075 99.06 98.075 96.66V92.26C98.075 88.6867 99.195 85.7267 101.435 83.38C103.675 80.98 106.582 79.6733 110.155 79.46V78.82C106.635 78.6067 103.728 77.3267 101.435 74.98C99.195 72.58 98.075 69.5933 98.075 66.02V61.7C98.075 59.4067 97.3283 57.7533 95.835 56.74C94.395 55.6733 92.1817 55.1933 89.195 55.3V43.62H92.875C96.4483 43.62 99.6217 44.2867 102.395 45.62C105.168 46.9 107.328 48.74 108.875 51.14C110.422 53.4867 111.195 56.1533 111.195 59.14V65.78C111.195 67.9667 111.435 69.6733 111.915 70.9C112.395 72.0733 113.115 72.9 114.075 73.38C115.088 73.86 116.422 74.0733 118.075 74.02V84.34C116.422 84.34 115.088 84.58 114.075 85.06C113.115 85.54 112.395 86.3667 111.915 87.54C111.435 88.7133 111.195 90.3667 111.195 92.5V99.14C111.195 102.18 110.422 104.873 108.875 107.22C107.328 109.567 105.168 111.407 102.395 112.74C99.6217 114.127 96.4483 114.82 92.875 114.82H89.195Z" fill="#808080"/>
</svg>
