<svg width="734" height="218" viewBox="0 0 734 218" fill="none" xmlns="http://www.w3.org/2000/svg">
<rect x="17.5" y="48.5" width="121" height="121" rx="17.5" stroke="black" stroke-width="15"/>
<path d="M170.72 51.4H190.24L246.4 151.24V51.4H260.16V165H239.68L184.48 67.08V165H170.72V51.4ZM321.306 166.92C313.52 166.92 306.693 165.107 300.826 161.48C294.96 157.853 290.426 152.733 287.226 146.12C284.026 139.4 282.426 131.56 282.426 122.6C282.426 113.64 284.026 105.853 287.226 99.24C290.426 92.52 294.96 87.3467 300.826 83.72C306.693 80.0933 313.52 78.28 321.306 78.28C328.986 78.28 335.76 80.0933 341.626 83.72C347.493 87.3467 352.026 92.52 355.226 99.24C358.426 105.853 360.026 113.64 360.026 122.6C360.026 131.56 358.426 139.4 355.226 146.12C352.026 152.733 347.493 157.853 341.626 161.48C335.76 165.107 328.986 166.92 321.306 166.92ZM321.306 154.12C329.093 154.12 335.12 151.347 339.386 145.8C343.76 140.147 345.946 132.413 345.946 122.6C345.946 112.787 343.76 105.107 339.386 99.56C335.12 93.9067 329.093 91.08 321.306 91.08C313.52 91.08 307.44 93.8533 303.066 99.4C298.693 104.947 296.506 112.68 296.506 122.6C296.506 132.52 298.693 140.253 303.066 145.8C307.44 151.347 313.52 154.12 321.306 154.12ZM426.443 167.56C416.309 167.56 407.403 165.213 399.723 160.52C392.043 155.72 386.069 148.84 381.803 139.88C377.536 130.92 375.403 120.413 375.403 108.36C375.403 96.3067 377.536 85.8 381.803 76.84C386.069 67.7733 392.043 60.84 399.723 56.04C407.403 51.24 416.309 48.84 426.443 48.84C439.776 48.84 450.283 52.2 457.962 58.92C465.749 65.64 470.869 75.1867 473.323 87.56L458.763 88.52C457.163 80.2 453.643 73.7467 448.203 69.16C442.869 64.5733 435.616 62.28 426.443 62.28C419.189 62.28 412.789 64.1467 407.243 67.88C401.696 71.5067 397.376 76.7867 394.283 83.72C391.296 90.6533 389.803 98.8667 389.803 108.36C389.803 117.853 391.296 126.067 394.283 133C397.376 139.827 401.696 145.053 407.243 148.68C412.789 152.307 419.189 154.12 426.443 154.12C436.149 154.12 443.723 151.613 449.163 146.6C454.709 141.587 458.229 134.493 459.723 125.32L474.283 126.28C472.149 138.973 466.923 149.053 458.603 156.52C450.389 163.88 439.669 167.56 426.443 167.56ZM496.033 51.4H515.233L551.553 149.96L587.713 51.4H606.913V165H593.153V77L560.673 165H542.273L509.793 77V165H496.033V51.4ZM673.681 167.56C665.041 167.56 657.468 165.96 650.961 162.76C644.455 159.453 639.281 154.867 635.441 149C631.601 143.133 629.361 136.36 628.721 128.68L643.121 127.72C643.868 133.373 645.521 138.173 648.081 142.12C650.641 146.067 654.055 149.053 658.321 151.08C662.695 153.107 667.921 154.12 674.001 154.12C682.001 154.12 688.188 152.573 692.561 149.48C696.935 146.387 699.121 141.96 699.121 136.2C699.121 132.467 698.268 129.267 696.561 126.6C694.855 123.933 691.655 121.48 686.961 119.24C682.268 117 675.495 114.76 666.641 112.52C657.681 110.28 650.641 107.827 645.521 105.16C640.508 102.493 636.828 99.2933 634.481 95.56C632.241 91.72 631.121 86.92 631.121 81.16C631.121 74.8667 632.615 69.2667 635.601 64.36C638.695 59.4533 643.068 55.6667 648.721 53C654.481 50.2267 661.201 48.84 668.881 48.84C676.988 48.84 684.028 50.3867 690.001 53.48C696.081 56.5733 700.881 60.84 704.401 66.28C708.028 71.72 710.268 77.96 711.121 85L696.721 85.96C696.081 81.2667 694.588 77.16 692.241 73.64C689.895 70.0133 686.748 67.24 682.801 65.32C678.855 63.2933 674.108 62.28 668.561 62.28C661.521 62.28 655.921 63.9867 651.761 67.4C647.601 70.7067 645.521 75.08 645.521 80.52C645.521 84.1467 646.321 87.08 647.921 89.32C649.628 91.56 652.508 93.5867 656.561 95.4C660.721 97.1067 666.961 98.9733 675.281 101C684.668 103.347 692.135 106.12 697.681 109.32C703.335 112.52 707.388 116.253 709.841 120.52C712.295 124.68 713.521 129.587 713.521 135.24C713.521 141.747 711.815 147.453 708.401 152.36C704.988 157.16 700.241 160.893 694.161 163.56C688.188 166.227 681.361 167.56 673.681 167.56Z" fill="black"/>
<path d="M63.24 144.82C59.6667 144.82 56.4933 144.127 53.72 142.74C50.9467 141.407 48.7867 139.567 47.24 137.22C45.6933 134.873 44.92 132.18 44.92 129.14V122.5C44.92 120.367 44.68 118.713 44.2 117.54C43.72 116.367 42.9733 115.54 41.96 115.06C41 114.58 39.6933 114.34 38.04 114.34V104.02C39.6933 104.073 41 103.86 41.96 103.38C42.9733 102.9 43.72 102.073 44.2 100.9C44.68 99.6733 44.92 97.9667 44.92 95.78V89.14C44.92 86.1533 45.6933 83.4867 47.24 81.14C48.7867 78.74 50.9467 76.9 53.72 75.62C56.4933 74.2867 59.6667 73.62 63.24 73.62H67V85.3C63.96 85.1933 61.6933 85.6733 60.2 86.74C58.76 87.7533 58.04 89.4067 58.04 91.7V96.02C58.04 99.5933 56.8933 102.58 54.6 104.98C52.36 107.327 49.48 108.607 45.96 108.82V109.46C49.5333 109.673 52.44 110.98 54.68 113.38C56.92 115.727 58.04 118.687 58.04 122.26V126.66C58.04 129.06 58.76 130.82 60.2 131.94C61.6933 133.06 63.96 133.567 67 133.46V144.82H63.24ZM89.195 144.82V133.46C92.1817 133.567 94.395 133.06 95.835 131.94C97.3283 130.82 98.075 129.06 98.075 126.66V122.26C98.075 118.687 99.195 115.727 101.435 113.38C103.675 110.98 106.582 109.673 110.155 109.46V108.82C106.635 108.607 103.728 107.327 101.435 104.98C99.195 102.58 98.075 99.5933 98.075 96.02V91.7C98.075 89.4067 97.3283 87.7533 95.835 86.74C94.395 85.6733 92.1817 85.1933 89.195 85.3V73.62H92.875C96.4483 73.62 99.6217 74.2867 102.395 75.62C105.168 76.9 107.328 78.74 108.875 81.14C110.422 83.4867 111.195 86.1533 111.195 89.14V95.78C111.195 97.9667 111.435 99.6733 111.915 100.9C112.395 102.073 113.115 102.9 114.075 103.38C115.088 103.86 116.422 104.073 118.075 104.02V114.34C116.422 114.34 115.088 114.58 114.075 115.06C113.115 115.54 112.395 116.367 111.915 117.54C111.435 118.713 111.195 120.367 111.195 122.5V129.14C111.195 132.18 110.422 134.873 108.875 137.22C107.328 139.567 105.168 141.407 102.395 142.74C99.6217 144.127 96.4483 144.82 92.875 144.82H89.195Z" fill="#808080"/>
</svg>
